<svg width="44" height="43" viewBox="0 0 44 43" fill="none" xmlns="http://www.w3.org/2000/svg">
<path d="M35.5 8.45H1C0.787827 8.45 0.584344 8.53429 0.434315 8.68431C0.284285 8.83434 0.2 9.03783 0.2 9.25V41.5C0.2 41.7122 0.284285 41.9157 0.434315 42.0657C0.584344 42.2157 0.787827 42.3 1 42.3H35.5C35.7122 42.3 35.9157 42.2157 36.0657 42.0657C36.2157 41.9157 36.3 41.7122 36.3 41.5V9.25C36.3 9.03783 36.2157 8.83434 36.0657 8.68431C35.9157 8.53429 35.7122 8.45 35.5 8.45ZM5.55 10.05H8.45V17.45H5.55V10.05ZM1.8 10.05H3.95V18.25C3.95 18.4622 4.03429 18.6657 4.18431 18.8157C4.33434 18.9657 4.53783 19.05 4.75 19.05H9.25C9.46217 19.05 9.66566 18.9657 9.81569 18.8157C9.96571 18.6657 10.05 18.4622 10.05 18.25V10.05H12.2V40.7H1.8V10.05ZM34.7 40.7H13.8V10.05H34.7V40.7Z" fill="#4764C3" stroke="#4764C3" stroke-width="0.1"/>
<path d="M31.75 37.7H31.7V37.75V39.25V39.3H31.75H33.25H33.3V39.25V37.75V37.7H33.25H31.75Z" fill="#4764C3" stroke="#4764C3" stroke-width="0.1"/>
<path d="M28.75 37.7H28.7V37.75V39.25V39.3H28.75H30.25H30.3V39.25V37.75V37.7H30.25H28.75Z" fill="#4764C3" stroke="#4764C3" stroke-width="0.1"/>
<path d="M25.75 37.7H25.7V37.75V39.25V39.3H25.75H27.25H27.3V39.25V37.75V37.7H27.25H25.75Z" fill="#4764C3" stroke="#4764C3" stroke-width="0.1"/>
<path d="M20.5 17.55H28C28.61 17.55 29.195 17.3077 29.6263 16.8763C30.0577 16.445 30.3 15.86 30.3 15.25C30.3 14.64 30.0577 14.055 29.6263 13.6237C29.195 13.1923 28.61 12.95 28 12.95H20.5C19.89 12.95 19.305 13.1923 18.8737 13.6237C18.4423 14.055 18.2 14.64 18.2 15.25C18.2 15.86 18.4423 16.445 18.8737 16.8763C19.305 17.3077 19.89 17.55 20.5 17.55ZM20.5 14.55H28C28.1857 14.55 28.3637 14.6237 28.495 14.755C28.6263 14.8863 28.7 15.0643 28.7 15.25C28.7 15.4357 28.6263 15.6137 28.495 15.745C28.3637 15.8763 28.1857 15.95 28 15.95H20.5C20.3143 15.95 20.1363 15.8763 20.005 15.745C19.8737 15.6137 19.8 15.4357 19.8 15.25C19.8 15.0643 19.8737 14.8863 20.005 14.755C20.1363 14.6237 20.3143 14.55 20.5 14.55Z" fill="#4764C3" stroke="#4764C3" stroke-width="0.1"/>
<path d="M43.75 10.05H43.8V10V8.5V8.45H43.75H37.75H37.7V8.5V10V10.05H37.75H39.95V40.7H37.75H37.7V40.75V42.25V42.3H37.75H43.75H43.8V42.25V40.75V40.7H43.75H41.55V10.05H43.75Z" fill="#4764C3" stroke="#4764C3" stroke-width="0.1"/>
<path d="M34.7 1V3.2H13.8V1V0.95H13.75H12.25H12.2V1V3.2H1.8V1V0.95H1.75H0.25H0.2V1V7V7.05H0.25H1.75H1.8V7V4.8H12.2V7V7.05H12.25H13.75H13.8V7V4.8H34.7V7V7.05H34.75H36.25H36.3V7V1V0.95H36.25H34.75H34.7V1Z" fill="#4764C3" stroke="#4764C3" stroke-width="0.1"/>
</svg>