<svg width="217" height="217" viewBox="0 0 217 217" fill="none" xmlns="http://www.w3.org/2000/svg">
<g clip-path="url(#clip0)">
<path d="M208.715 0.348319C208.612 0.380954 208.503 0.336028 208.402 0.373749L4.96391 76.6629C2.73499 77.5013 1.15835 79.5187 0.884978 81.8904C0.611608 84.2622 1.68601 86.5839 3.6725 87.9062L48.2733 117.636L64.5898 185.813C64.6326 185.992 64.7428 186.135 64.8001 186.307C66.2665 190.78 71.8988 192.2 75.2682 188.83L107.185 156.914L156.251 189.625C159.806 192.009 164.707 190.229 165.893 186.08L216.752 8.07217C218.118 3.28121 213.62 -1.22663 208.715 0.348319ZM80.0549 129.664C79.0021 130.731 78.6851 131.595 78.3159 132.939C78.3113 132.964 78.3003 132.988 78.2956 133.012L71.2016 158.807L61.0941 116.571L159.56 49.0543L80.0549 129.664Z" fill="#1C3988"/>
<path d="M42.6394 174.331C40.1562 171.848 36.1328 171.848 33.6495 174.331L1.86238 206.119C-0.620834 208.602 -0.620834 212.625 1.86238 215.108C4.34602 217.592 8.36858 217.592 10.8522 215.108L42.6394 183.321C45.1226 180.838 45.1226 176.815 42.6394 174.331Z" fill="#1C3988"/>
<path d="M42.6394 136.187C40.1562 133.704 36.1328 133.703 33.6495 136.187L1.86238 167.974C-0.620834 170.457 -0.620834 174.481 1.86238 176.964C4.34602 179.448 8.36858 179.448 10.8522 176.964L42.6394 145.177C45.1226 142.694 45.1226 138.67 42.6394 136.187Z" fill="#1C3988"/>
</g>
<defs>
<clipPath id="clip0">
<rect width="217" height="217" fill="white"/>
</clipPath>
</defs>
</svg>
